<?xml version="1.0" standalone="no"?>
<!DOCTYPE svg PUBLIC "-//W3C//DTD SVG 20010904//EN"
 "http://www.w3.org/TR/2001/REC-SVG-20010904/DTD/svg10.dtd">
<svg version="1.0" xmlns="http://www.w3.org/2000/svg"
 width="177.324414pt" height="164.397344pt" viewBox="0 0 177.324414 164.397344"
 preserveAspectRatio="xMidYMid meet">
<metadata>
Created by potrace 1.15, written by Peter Selinger 2001-2017
</metadata>
<g transform="translate(-119.882864,740.197344) scale(0.100000,-0.100000)"
fill="#000000" stroke="none">
<path d="M1269 7396 c-47 -15 -69 -64 -70 -153 -1 -56 4 -80 25 -120 16 -32
33 -95 45 -170 24 -140 45 -209 74 -241 29 -31 105 -52 220 -59 53 -3 97 -9
97 -12 -1 -3 -32 -26 -71 -49 -75 -47 -173 -132 -191 -166 -32 -60 39 -422
111 -564 38 -75 70 -104 114 -104 65 0 122 44 188 145 60 93 99 197 206 560 3
9 12 17 19 17 11 0 14 -21 14 -94 0 -76 3 -98 18 -116 l19 -23 16 24 c13 18
17 46 17 116 0 149 20 126 85 -96 107 -368 213 -533 342 -533 44 0 76 29 114
104 54 107 119 383 119 507 l0 56 -69 65 c-38 36 -99 83 -135 105 -36 22 -65
43 -66 46 0 3 44 9 98 12 114 7 190 28 219 59 29 32 49 96 73 239 13 76 30
140 46 172 45 87 29 237 -27 267 -58 31 -169 0 -349 -98 -179 -97 -297 -232
-400 -455 -49 -106 -70 -122 -67 -54 2 36 -1 42 -18 42 -17 0 -20 -6 -18 -42
3 -68 -18 -52 -67 54 -103 223 -222 358 -400 455 -175 95 -269 124 -331 104z"/>
</g>
</svg>
