<?xml version="1.0" standalone="no"?>
<!DOCTYPE svg PUBLIC "-//W3C//DTD SVG 20010904//EN"
 "http://www.w3.org/TR/2001/REC-SVG-20010904/DTD/svg10.dtd">
<svg version="1.0" xmlns="http://www.w3.org/2000/svg"
 width="241.644918pt" height="207.100700pt" viewBox="0 0 241.644918 207.100700"
 preserveAspectRatio="xMidYMid meet">
<metadata>
Created by potrace 1.15, written by Peter Selinger 2001-2017
</metadata>
<g transform="translate(-2.178096,209.993202) scale(0.100000,-0.100000)"
fill="#000000" stroke="none">
<path d="M247 2093 c-13 -12 -7 -48 17 -105 13 -32 23 -58 21 -58 -1 0 -19 26
-40 58 -47 71 -75 103 -86 96 -17 -10 -8 -53 24 -117 l33 -66 -40 36 c-37 34
-40 35 -53 18 -7 -11 -13 -24 -13 -29 1 -20 41 -101 63 -125 l22 -24 -39 23
c-31 19 -40 20 -47 9 -14 -21 -1 -60 29 -92 24 -26 25 -29 7 -27 -38 4 -45 0
-45 -27 0 -19 15 -41 54 -79 l53 -52 -38 5 c-73 10 -57 -50 29 -107 l45 -30
-39 0 c-21 0 -46 -4 -54 -10 -21 -13 -2 -60 37 -86 34 -23 33 -34 -1 -34 -38
0 -51 -15 -38 -44 13 -30 72 -62 139 -76 l48 -11 -3 -65 c-9 -174 115 -363
338 -513 47 -31 85 -61 85 -66 0 -14 -239 -184 -289 -205 -22 -10 -81 -26
-131 -35 -49 -9 -126 -23 -170 -31 -91 -17 -139 -41 -143 -70 -5 -33 52 -101
95 -113 95 -27 244 -10 524 60 245 60 245 60 514 68 245 7 252 8 342 39 116
39 232 98 303 152 30 23 82 54 116 69 33 16 97 54 141 85 99 69 126 72 183 20
22 -20 43 -34 46 -31 3 3 1 58 -4 123 -11 128 -22 153 -82 188 -22 13 -53 20
-94 20 -51 1 -70 -4 -117 -31 -35 -21 -76 -35 -112 -39 l-57 -7 0 31 c0 48 80
147 320 397 216 224 285 347 297 525 7 106 -12 299 -31 318 -12 12 -19 9 -52
-21 -35 -32 -39 -42 -60 -143 -13 -60 -23 -98 -25 -84 -1 14 -4 88 -8 165 l-6
140 -25 3 c-54 6 -100 -91 -100 -209 0 -106 -12 -115 -26 -20 -13 92 -29 117
-67 107 -42 -10 -61 -66 -54 -160 l6 -81 -27 55 c-30 62 -51 71 -83 39 -19
-19 -21 -28 -15 -89 3 -38 9 -77 13 -87 5 -15 2 -15 -19 5 -32 29 -54 28 -74
-3 -14 -21 -16 -41 -11 -107 l5 -80 -34 33 -34 33 -28 -27 c-24 -24 -27 -35
-27 -95 0 -37 3 -83 8 -102 7 -34 7 -34 -8 -12 -22 30 -48 28 -78 -7 -26 -31
-31 -42 -125 -244 l-60 -128 -84 103 c-119 144 -204 222 -434 395 -206 156
-291 235 -337 314 -42 72 -77 166 -93 248 -8 42 -18 79 -23 84 -10 10 -41 -19
-41 -37 0 -15 18 -112 26 -141 3 -11 -18 21 -46 70 -58 102 -92 155 -101 155
-3 0 -9 -3 -12 -7z"/>
</g>
</svg>
