<?xml version="1.0" standalone="no"?>
<!DOCTYPE svg PUBLIC "-//W3C//DTD SVG 20010904//EN"
 "http://www.w3.org/TR/2001/REC-SVG-20010904/DTD/svg10.dtd">
<svg version="1.0" xmlns="http://www.w3.org/2000/svg"
 width="161.903917pt" height="192.978170pt" viewBox="0 0 161.903917 192.978170"
 preserveAspectRatio="xMidYMid meet">
<metadata>
Created by potrace 1.15, written by Peter Selinger 2001-2017
</metadata>
<g transform="translate(-131.096083,751.000000) scale(0.100000,-0.100000)"
fill="#000000" stroke="none">
<path d="M2323 7452 c4 -32 10 -67 13 -78 4 -10 -8 1 -27 25 -44 57 -66 71
-79 51 -35 -55 -20 -154 45 -288 49 -103 54 -138 30 -218 -24 -79 -31 -84
-159 -110 -358 -72 -582 -212 -685 -427 -45 -93 -98 -272 -108 -362 -3 -33
-15 -73 -25 -90 -34 -57 -16 -124 44 -166 18 -12 51 -39 73 -59 55 -51 90 -61
240 -67 102 -4 146 -10 203 -29 74 -25 184 -35 230 -20 44 14 19 107 -41 152
l-24 18 76 45 c42 24 105 68 140 98 78 66 84 63 112 -58 11 -46 28 -95 37
-109 10 -14 32 -50 50 -80 17 -31 42 -66 56 -79 23 -22 32 -23 95 -19 118 9
149 48 92 114 -56 63 -76 196 -43 290 34 101 71 286 86 431 8 77 22 168 31
202 15 53 24 66 60 91 51 35 85 99 85 157 0 84 -118 254 -199 286 -22 9 -69
22 -105 28 l-65 12 -21 53 c-29 70 -101 191 -139 232 -19 21 -39 32 -57 32
-27 0 -27 0 -21 -58z"/>
</g>
</svg>
