<?xml version="1.0" standalone="no"?>
<!DOCTYPE svg PUBLIC "-//W3C//DTD SVG 20010904//EN"
 "http://www.w3.org/TR/2001/REC-SVG-20010904/DTD/svg10.dtd">
<svg version="1.0" xmlns="http://www.w3.org/2000/svg"
 width="235.995485pt" height="102.418106pt" viewBox="0 0 235.995485 102.418106"
 preserveAspectRatio="xMidYMid meet">
<metadata>
Created by potrace 1.15, written by Peter Selinger 2001-2017
</metadata>
<g transform="translate(-114.246740,740.811530) scale(0.100000,-0.100000)"
fill="#000000" stroke="none">
<path d="M1938 7400 c-148 -12 -151 -20 -35 -118 45 -39 95 -84 110 -100 l29
-30 -54 -17 c-29 -10 -92 -35 -139 -56 -135 -61 -164 -56 -410 62 -196 94
-256 108 -284 66 -13 -20 -15 -37 -10 -69 8 -51 46 -138 82 -191 24 -34 25
-40 12 -64 -10 -18 -14 -60 -14 -134 0 -97 2 -111 21 -129 20 -20 23 -21 57
-6 20 8 91 55 157 105 87 66 136 95 177 107 69 20 147 15 224 -15 l56 -21 -4
-43 c-4 -31 0 -48 13 -65 17 -20 30 -23 144 -28 69 -3 159 -2 200 3 41 5 97 8
123 5 45 -4 48 -6 42 -26 -26 -76 -13 -163 31 -216 35 -40 74 -47 129 -20 51
25 96 73 163 176 l46 71 130 12 c211 18 469 87 540 144 l28 23 -22 45 c-32 62
-144 169 -231 220 -41 24 -116 57 -166 75 -77 26 -100 40 -138 79 -90 92 -243
138 -517 155 -181 11 -344 11 -490 0z"/>
</g>
</svg>
