<?xml version="1.0" standalone="no"?>
<!DOCTYPE svg PUBLIC "-//W3C//DTD SVG 20010904//EN"
 "http://www.w3.org/TR/2001/REC-SVG-20010904/DTD/svg10.dtd">
<svg version="1.0" xmlns="http://www.w3.org/2000/svg"
 width="221.414210pt" height="202.321386pt" viewBox="0 0 221.414210 202.321386"
 preserveAspectRatio="xMidYMid meet">
<metadata>
Created by potrace 1.15, written by Peter Selinger 2001-2017
</metadata>
<g transform="translate(-53.242313,740.661501) scale(0.100000,-0.100000)"
fill="#000000" stroke="none">
<path d="M1572 7391 c-61 -29 -87 -88 -79 -185 5 -64 80 -504 93 -549 4 -14 1
-18 -11 -15 -19 3 -17 0 -186 317 -125 235 -171 297 -225 307 -85 16 -174 -39
-174 -108 0 -57 44 -111 374 -462 158 -169 151 -167 -144 24 -383 248 -426
269 -502 237 -46 -20 -69 -54 -70 -107 -1 -51 23 -86 78 -117 21 -12 186 -78
366 -145 180 -67 324 -126 319 -131 -5 -5 -156 8 -337 28 -426 48 -495 42
-531 -42 -36 -89 22 -157 144 -169 49 -5 496 36 681 62 33 5 42 3 42 -9 0 -8
-12 -18 -27 -22 -52 -13 -547 -197 -619 -230 -76 -35 -112 -72 -116 -121 -3
-44 17 -70 67 -89 59 -23 123 -14 184 24 74 47 542 322 557 328 44 17 -8 -48
-196 -243 -214 -222 -260 -283 -260 -349 0 -79 109 -132 188 -91 59 31 80 64
267 411 109 203 121 223 130 214 3 -3 -18 -133 -45 -289 -28 -156 -50 -302
-50 -325 0 -22 9 -59 20 -83 15 -34 29 -47 66 -64 108 -47 204 22 204 147 0
28 -20 173 -45 324 -25 151 -43 276 -41 279 11 11 34 -25 181 -293 161 -292
181 -319 244 -331 78 -16 161 35 161 97 0 66 -46 129 -265 364 -117 126 -212
231 -210 233 1 2 131 -72 286 -165 299 -176 368 -208 433 -200 92 13 127 105
64 172 -35 37 -70 51 -520 220 -114 43 -205 82 -202 87 3 5 18 7 32 4 42 -9
362 -44 522 -57 216 -18 308 9 324 95 16 86 -52 145 -167 146 -56 0 -479 -40
-622 -60 -155 -20 -106 3 409 196 115 43 220 87 233 98 50 43 45 139 -8 178
-37 28 -100 34 -149 14 -57 -23 -263 -148 -457 -278 -90 -59 -165 -108 -168
-108 -22 0 21 53 196 240 110 118 214 235 231 258 55 79 45 160 -25 202 -40
25 -68 25 -116 0 -56 -28 -85 -70 -216 -315 -161 -300 -164 -305 -181 -305
-10 0 -13 6 -10 18 3 9 22 118 42 242 42 261 49 400 21 443 -40 62 -114 81
-185 48z m121 -973 c24 -28 21 -53 -9 -77 -35 -27 -57 -26 -91 3 -24 21 -26
27 -18 52 19 54 80 65 118 22z"/>
</g>
</svg>
