<?xml version="1.0" standalone="no"?>
<!DOCTYPE svg PUBLIC "-//W3C//DTD SVG 20010904//EN"
 "http://www.w3.org/TR/2001/REC-SVG-20010904/DTD/svg10.dtd">
<svg version="1.0" xmlns="http://www.w3.org/2000/svg"
 width="106.805617pt" height="176.457205pt" viewBox="0 0 106.805617 176.457205"
 preserveAspectRatio="xMidYMid meet">
<metadata>
Created by potrace 1.15, written by Peter Selinger 2001-2017
</metadata>
<g transform="translate(-129.619211,735.000000) scale(0.100000,-0.100000)"
fill="#000000" stroke="none">
<path d="M1816 7328 c-3 -13 -6 -33 -6 -46 0 -57 -89 -172 -134 -172 -5 0 -25
-12 -45 -27 -19 -16 -45 -31 -56 -35 -12 -5 -7 -6 14 -3 27 4 32 2 27 -11 -6
-15 -4 -15 18 0 33 21 35 20 29 -6 -4 -21 -2 -20 22 7 23 27 27 28 36 13 5
-10 21 -18 35 -18 16 0 24 -5 22 -12 -8 -22 -128 -98 -173 -109 -26 -7 -56
-24 -76 -45 -30 -31 -30 -51 0 -21 10 10 11 9 6 -5 -9 -22 8 -24 25 -3 7 8 19
15 27 15 11 0 11 -4 3 -20 -15 -28 -1 -25 33 8 l30 27 -6 -24 c-4 -18 -3 -21
6 -12 6 6 21 11 33 11 21 0 22 -1 8 -29 -8 -16 -22 -32 -32 -36 -69 -27 -149
-54 -162 -53 -39 3 -54 -2 -43 -13 9 -9 5 -19 -18 -39 -16 -16 -29 -34 -29
-41 0 -8 7 -6 20 6 11 10 23 15 27 12 4 -4 17 3 31 15 l24 23 -7 -30 -6 -30
17 30 c15 27 18 28 24 11 6 -19 7 -19 14 0 8 19 8 19 16 -1 7 -19 9 -18 19 8
12 30 28 35 38 11 5 -13 9 -12 29 7 12 11 28 18 34 14 7 -4 2 -14 -15 -27 -14
-10 -25 -25 -25 -32 0 -7 -19 -18 -42 -25 -92 -27 -186 -80 -224 -126 -40 -49
-43 -71 -4 -30 29 31 40 32 33 3 -4 -18 0 -16 16 10 25 39 41 41 42 5 l0 -28
16 32 c9 17 24 34 34 36 32 9 21 -18 -22 -54 -22 -19 -52 -44 -65 -56 -14 -13
-29 -23 -33 -23 -11 0 -35 -28 -37 -44 -1 -6 -18 -35 -38 -65 -37 -54 -41 -86
-5 -42 14 17 19 19 19 7 0 -30 30 -16 57 27 l28 42 6 -35 6 -35 8 34 c5 21 19
40 39 52 40 25 49 24 41 -3 -5 -22 -5 -22 7 -4 7 10 23 31 35 45 l22 26 1 -27
c0 -39 12 -35 48 16 24 34 37 43 52 39 32 -8 32 -19 0 -53 -17 -18 -30 -36
-30 -40 0 -5 -21 -22 -46 -39 -26 -17 -53 -40 -61 -51 -8 -11 -23 -20 -35 -20
-22 0 -168 -135 -168 -156 0 -20 23 -7 45 26 11 17 26 30 33 30 18 0 15 -9
-13 -46 -40 -52 -29 -52 25 1 49 48 72 56 51 17 -16 -30 -13 -51 4 -29 13 18
14 17 18 -5 3 -20 5 -19 12 10 9 37 26 38 36 1 6 -22 8 -21 24 19 10 23 21 42
26 42 14 0 20 -59 10 -97 -12 -44 -13 -81 -1 -43 l8 25 1 -28 c2 -43 16 -24
31 40 12 49 15 54 18 28 l4 -30 15 35 c16 35 16 35 23 10 7 -22 8 -22 9 -4 2
32 14 37 27 12 11 -20 13 -17 25 36 23 106 32 77 44 -144 4 -93 -3 -209 -21
-321 -4 -31 -2 -38 20 -52 20 -14 30 -15 50 -6 14 7 27 17 29 23 5 11 -6 199
-21 386 -13 157 2 230 30 139 8 -29 14 -36 18 -25 10 29 47 -22 59 -79 l10
-50 -4 53 c-2 28 -2 52 0 52 2 0 14 -27 26 -60 21 -59 39 -77 39 -42 1 13 4
11 15 -8 l15 -25 -6 30 c-4 17 -17 56 -30 88 -15 38 -21 69 -17 88 3 18 0 38
-11 54 -19 30 -17 30 28 8 24 -11 37 -25 41 -45 10 -45 29 -48 22 -2 l-6 39
37 -43 c39 -44 62 -54 62 -25 0 14 2 14 20 -2 37 -34 29 -10 -15 47 -34 42
-41 57 -31 61 10 4 18 -4 25 -24 13 -38 25 -38 18 1 -4 17 -2 30 3 30 6 0 10
-3 10 -7 0 -5 14 -23 32 -42 27 -29 33 -32 43 -18 11 15 13 15 28 0 30 -30 28
-7 -3 35 -16 23 -29 47 -28 53 6 23 -133 109 -176 109 -15 0 -27 7 -31 19 -3
11 -12 22 -20 25 -16 6 -21 46 -6 46 5 0 14 -7 21 -15 18 -22 32 -18 20 6 -11
20 -11 20 19 4 20 -10 31 -11 31 -5 0 6 13 2 29 -9 28 -21 81 -44 81 -36 0 11
-150 94 -181 99 -37 7 -89 40 -89 56 0 6 10 6 25 0 38 -15 30 -3 -15 20 -65
33 -110 78 -109 109 2 24 2 24 6 3 4 -22 6 -22 18 -6 12 17 13 16 21 -7 8 -24
8 -24 14 6 6 29 6 28 24 -22 10 -29 21 -53 25 -53 5 0 12 15 18 33 l9 32 23
-35 c17 -26 22 -29 18 -12 -7 31 10 27 46 -10 18 -20 28 -26 24 -15 -6 15 -1
14 24 -7 17 -14 35 -24 40 -20 5 3 -15 24 -45 48 -30 23 -71 62 -91 86 -21 25
-49 51 -64 59 -29 16 -41 29 -41 50 0 11 4 11 18 -2 10 -10 26 -17 35 -17 9 0
21 -8 27 -17 9 -14 12 -15 17 -5 4 10 11 8 29 -9 26 -24 30 -20 13 13 -11 21
-11 21 16 0 32 -26 36 -25 29 6 -4 15 -29 32 -78 56 -79 38 -169 122 -180 169
-3 15 -4 27 -1 27 16 0 45 -22 45 -35 0 -17 17 -23 47 -17 19 4 21 7 12 18
-17 21 -4 28 30 16 44 -15 38 -7 -15 24 -72 42 -157 148 -178 222 -9 34 -19
62 -20 62 -2 0 -6 -10 -10 -22z"/>
</g>
</svg>
